<?xml version="1.0" encoding="UTF-8"?>
<svg width="25px" height="22px" viewBox="0 0 25 22" version="1.1" xmlns="http://www.w3.org/2000/svg" xmlns:xlink="http://www.w3.org/1999/xlink">
    <title>Icon</title>
    <g id="⚡-Active---SKIP" stroke="none" stroke-width="1" fill="none" fill-rule="evenodd">
        <g id="Mobile:-Views" transform="translate(-88.000000, -690.000000)" fill="#F3BA2F" fill-rule="nonzero">
            <g id="Mobile:-Menu" transform="translate(0.500000, 675.164383)">
                <g id="Upgrade" transform="translate(27.500000, 8.835617)">
                    <g id="Icon" transform="translate(60.000000, 6.000000)">
                        <circle id="Shape" cx="10.4764195" cy="3.49213984" r="3.49213984"></circle>
                        <path d="M22.1410389,13.9984603 C20.9542757,14.0533264 19.5948721,14.3616738 18.5094656,13.7817393 C17.5187327,13.2533788 16.7279285,11.9920075 16.3737373,10.9983826 C16.3158193,10.8337844 16.2306129,10.6993624 16.1348254,10.5808517 C15.8335401,9.99323588 15.3395659,9.49121117 14.6840895,9.17189054 C12.6291124,8.49978096 10.6470898,9.23663252 10.6470898,9.23663252 C9.87577725,9.61630585 9.27376363,10.1929484 9.05935545,10.8760312 C8.9758198,10.9868607 8.90063771,11.1092121 8.84884561,11.2568019 C8.46625231,12.3299826 7.68992763,13.3888981 6.71423119,14.0396099 C5.77194901,14.6678266 4.31564411,14.3057104 3.25641202,14.2563309 C1.45037117,14.1718372 1.45816784,16.8690541 3.25641202,16.9535478 C5.07637547,17.0391389 6.78829947,17.2618953 8.37380619,16.2046257 C8.54867416,16.0883096 8.71741618,15.961569 8.88170296,15.8293417 C8.86955998,16.4317013 8.93054135,17.3656508 9.06464708,18.6311903 C9.26728656,20.5436084 10.8865793,21.9910244 12.8096638,21.9787136 C14.6796791,21.9667424 16.2115872,20.4900595 16.2921704,18.621743 C16.3480293,17.3267887 16.383015,16.3239308 16.3971273,15.6131693 C16.5441501,15.7294854 16.6928435,15.8436069 16.8487767,15.9478524 C18.4693684,17.0270684 20.2843197,16.7823656 22.1421527,16.6967745 C23.9392831,16.6122808 23.9465228,13.9145152 22.1410389,13.9984603 Z" id="Path"></path>
                        <path d="M2.11765936,8.98103927 C0.899641937,8.6739718 0.0673740658,8.24528153 0.0673740658,7.41439309 C0.0673740658,6.66177674 0.775462287,6.07292971 1.99347971,5.89230179 L1.99347971,5.07947614 L3.10845445,5.07947614 L3.10845445,5.83209248 C3.87334825,5.85738039 4.38327746,5.97900319 4.75977959,6.11387204 L4.42951456,7.08203771 C4.1335971,6.98811119 3.61045729,6.79062466 2.79140002,6.79062466 C2.05160636,6.79062466 1.81117342,7.03025771 1.81117342,7.26989075 C1.81117342,7.55167031 2.21013357,7.73229823 3.17714957,8.00685268 C4.53387831,8.36570015 5.07947614,8.83653693 5.07947614,9.60721607 C5.07947614,10.3694659 4.36346156,11.0197264 3.05296992,11.1907209 L3.05296992,12.0637558 L1.93535307,12.0637558 L1.93535307,11.2509302 C1.17310138,11.2256423 0.431986657,11.0715064 0,10.8836534 L0.340833509,9.88056633 C0.81905727,10.0780529 1.49147687,10.2574766 2.23127053,10.2574766 C2.88123211,10.2574766 3.32642937,10.0696236 3.32642937,9.72763469 C3.32642937,9.40130024 2.96181677,9.19658859 2.11765936,8.98103927 Z" id="Path"></path>
                        <path d="M24.2962511,7.22368795 C24.195168,6.24204418 23.4395861,5.71441065 22.7263575,5.71441065 C22.659157,5.71441065 22.593086,5.71931887 22.5264502,5.72729473 C22.0820235,5.78128514 21.6731735,6.0273096 21.3563713,6.43346471 C20.9938275,5.96963803 20.5155182,5.71502418 19.9982439,5.71502418 C19.994291,5.71502418 19.9909027,5.71563771 19.9869497,5.71563771 L19.9835615,5.71502418 C19.2697681,5.71502418 18.5141863,6.24265771 18.413101,7.224915 C18.4181856,7.22430147 18.423268,7.22430147 18.4260915,7.22368795 C18.4176209,7.30099239 18.413101,7.38013742 18.413101,7.46357714 C18.4114091,8.63296028 19.3872278,9.44895166 20.099327,10.0440732 C20.2280809,10.1514405 20.338764,10.2440831 20.4392824,10.3250687 C20.4387177,10.3256822 20.4375882,10.3269093 20.4375882,10.3269093 L20.4460589,10.3336581 C20.8887915,10.6901175 21.0536868,10.8232529 21.2355233,11.015287 C21.2665824,11.0465769 21.3055474,11.0637557 21.3479006,11.0637557 C21.3507242,11.0637557 21.3535477,11.0625286 21.356936,11.0625286 C21.3580654,11.0625286 21.3603242,11.0625286 21.3603242,11.0625286 C21.4026775,11.0625286 21.4427719,11.0453498 21.4721368,11.0134464 C21.6025848,10.8747892 21.726821,10.7668084 21.9504461,10.5845908 C21.9606109,10.5766149 21.9696462,10.5686391 21.9803757,10.5600497 C22.0278114,10.522011 22.0797647,10.4796776 22.1334121,10.4355036 C22.1735065,10.4029867 22.2158598,10.3692427 22.2627307,10.331204 L22.2723307,10.3256822 C22.2723307,10.3250687 22.2712013,10.3250687 22.2712013,10.3250687 C22.3705903,10.2428561 22.4818381,10.150827 22.610592,10.0446867 C23.3221265,9.44895166 24.2973805,8.63296028 24.2973805,7.4648042 C24.2973805,7.38075095 24.2922981,7.30037886 24.2838275,7.22246089 C24.2877804,7.22307442 24.2922981,7.22368795 24.2962511,7.22368795 Z" id="Path"></path>
                    </g>
                </g>
            </g>
        </g>
    </g>
</svg>