<?xml version="1.0" encoding="UTF-8"?>
<svg width="23px" height="24px" viewBox="0 0 23 24" version="1.1" xmlns="http://www.w3.org/2000/svg" xmlns:xlink="http://www.w3.org/1999/xlink">
    <title>Icon</title>
    <g id="⚡-Active---SKIP" stroke="none" stroke-width="1" fill="none" fill-rule="evenodd">
        <g id="Mobile:-Views" transform="translate(-375.000000, -689.000000)" fill="#28F4AF" fill-rule="nonzero">
            <g id="Mobile:-Menu" transform="translate(0.500000, 675.164383)">
                <g id="Upgrade" transform="translate(27.500000, 8.835617)">
                    <g id="Settings" transform="translate(341.500000, 3.244146)">
                        <g id="Selected" transform="translate(0.000000, -0.000000)">
                            <g id="Icon" transform="translate(3.622568, -0.000000)">
                                <path d="M3.01145665,17.5238535 L5.01145665,20.9879202 C5.24985665,21.4007202 5.74645665,21.5879202 6.19792331,21.4351868 L9.14085665,20.4395868 C9.40092331,20.6110535 9.67058998,20.7670535 9.94812331,20.9066535 L10.55719,23.9519868 C10.6506566,24.4193868 11.0611233,24.7558535 11.53779,24.7558535 L15.53779,24.7558535 C16.0144566,24.7558535 16.4249233,24.4193868 16.51839,23.9519868 L17.1274566,20.9066535 C17.40499,20.7670535 17.67459,20.6109868 17.9346566,20.4395868 L20.8776566,21.4351868 C21.3291233,21.5877868 21.82579,21.4007868 22.0641233,20.9879202 L24.0641233,17.5237868 C24.3024566,17.1109868 24.2163233,16.5873202 23.8582566,16.2726535 L21.5242566,14.2215202 C21.5332566,14.0661202 21.53779,13.9105868 21.53779,13.7558535 C21.53779,13.6010535 21.5332566,13.4455202 21.5242566,13.2901202 L23.8581233,11.2390535 C24.21619,10.9243868 24.3023233,10.4007202 24.06399,9.98792017 L22.06399,6.52378683 C21.8256566,6.11098683 21.32899,5.92372017 20.8775233,6.07652017 L17.9346566,7.07212017 C17.6746566,6.9006535 17.40499,6.7446535 17.1274566,6.6050535 L16.51839,3.55972017 C16.4249233,3.09232017 16.0144566,2.7558535 15.53779,2.7558535 L11.53779,2.7558535 C11.0611233,2.7558535 10.6506566,3.09232017 10.55719,3.55972017 L9.94812331,6.6050535 C9.67058998,6.7446535 9.40098998,6.90072017 9.14092331,7.07212017 L6.19792331,6.07652017 C5.74658998,5.9238535 5.24985665,6.11098683 5.01145665,6.52378683 L3.01145665,9.98792017 C2.77312331,10.4007202 2.85925665,10.9243868 3.21732331,11.2390535 L5.55118998,13.2901202 C5.54225665,13.4453202 5.53778998,13.6008535 5.53778998,13.7558535 C5.53778998,13.9108535 5.54225665,14.0664535 5.55118998,14.2215868 L3.21732331,16.2726535 C2.85925665,16.5873202 2.77312331,17.1109868 3.01145665,17.5238535 Z M13.53779,9.7558535 C15.74339,9.7558535 17.53779,11.5502535 17.53779,13.7558535 C17.53779,15.9614535 15.74339,17.7558535 13.53779,17.7558535 C11.33219,17.7558535 9.53778998,15.9614535 9.53778998,13.7558535 C9.53778998,11.5502535 11.33219,9.7558535 13.53779,9.7558535 Z" transform="translate(13.537790, 13.755854) rotate(18.000000) translate(-13.537790, -13.755854) "></path>
                            </g>
                        </g>
                    </g>
                </g>
            </g>
        </g>
    </g>
</svg>