<svg width="28" height="28" viewBox="0 0 28 28" fill="none" xmlns="http://www.w3.org/2000/svg">
    <mask id="path-1-inside-1" fill="white">
    <path fill-rule="evenodd" clip-rule="evenodd" d="M3.31646 18.2433L2.4848 14.3308C2.38571 13.8645 2.62945 13.393 3.06723 13.2044L5.92069 11.9749C5.96013 11.8246 6.00396 11.6753 6.05186 11.5279C6.09976 11.3804 6.15207 11.2339 6.20853 11.0891L4.6227 8.41718C4.3794 8.00726 4.4593 7.48261 4.81353 7.16366L7.78612 4.48711C8.14042 4.16818 8.67066 4.14371 9.05273 4.42837L11.544 6.28468C11.8443 6.20203 12.149 6.13692 12.4561 6.08991L13.9764 3.38184C14.2097 2.9662 14.7041 2.77304 15.1574 2.92034L18.9616 4.15641C19.415 4.3037 19.7014 4.75054 19.6458 5.22395L19.284 8.30845C19.5048 8.52698 19.7131 8.75867 19.9074 9.00209L23.0139 8.96462C23.4904 8.95881 23.9049 9.29039 24.004 9.75663L24.8357 13.6693C24.9348 14.1355 24.691 14.6069 24.2533 14.7955L21.3998 16.025C21.3604 16.1756 21.3166 16.3249 21.2688 16.4721C21.221 16.6193 21.1686 16.7658 21.112 16.9108L22.6979 19.5828C22.9412 19.9927 22.8613 20.5174 22.5071 20.8363L19.5345 23.5129C19.1803 23.8319 18.6501 23.8563 18.2679 23.5716L15.7766 21.7153C15.4763 21.798 15.1717 21.8631 14.8646 21.9101L13.3443 24.6181C13.1109 25.0338 12.6166 25.2269 12.1632 25.0797L8.35901 23.8436C7.90568 23.6963 7.61927 23.2494 7.67482 22.776L8.03662 19.6915C7.81581 19.473 7.60755 19.2413 7.4132 18.9979L4.30664 19.0353C3.83007 19.0411 3.41563 18.7096 3.31646 18.2433ZM17.4645 15.2361C18.1461 13.1384 16.994 10.8773 14.8964 10.1958C12.7987 9.5142 10.5377 10.6663 9.85609 12.7639C9.17452 14.8616 10.3266 17.1227 12.4242 17.8042C14.5219 18.4858 16.783 17.3337 17.4645 15.2361Z"/>
    </mask>
    <path d="M2.4848 14.3308L1.50664 14.5386L1.50665 14.5387L2.4848 14.3308ZM3.31646 18.2433L2.33831 18.4512L2.33834 18.4514L3.31646 18.2433ZM3.06723 13.2044L3.46292 14.1228L3.46294 14.1228L3.06723 13.2044ZM5.92069 11.9749L6.31639 12.8933L6.76417 12.7004L6.88794 12.2288L5.92069 11.9749ZM6.20853 11.0891L7.14025 11.4522L7.31732 10.9979L7.06847 10.5787L6.20853 11.0891ZM4.6227 8.41718L5.48264 7.90678L5.48263 7.90677L4.6227 8.41718ZM4.81353 7.16366L5.48266 7.90681L5.48267 7.9068L4.81353 7.16366ZM7.78612 4.48711L7.11708 3.74388L7.11699 3.74397L7.78612 4.48711ZM9.05273 4.42837L9.65022 3.62649L9.65019 3.62647L9.05273 4.42837ZM11.544 6.28468L10.9465 7.08656L11.3383 7.37847L11.8094 7.24883L11.544 6.28468ZM12.4561 6.08991L12.6074 7.0784L13.0893 7.00462L13.328 6.57945L12.4561 6.08991ZM13.9764 3.38184L14.8484 3.87137L14.8484 3.87135L13.9764 3.38184ZM15.1574 2.92034L15.4664 1.96928L15.1574 2.92034ZM18.9616 4.15641L18.6526 5.10746L18.9616 4.15641ZM19.6458 5.22395L18.6526 5.10743L18.6526 5.10745L19.6458 5.22395ZM19.284 8.30845L18.2908 8.19195L18.234 8.67623L18.5806 9.01922L19.284 8.30845ZM19.9074 9.00209L19.1258 9.62591L19.4307 10.0079L19.9194 10.002L19.9074 9.00209ZM23.0139 8.96462L23.0259 9.96454L23.0261 9.96454L23.0139 8.96462ZM24.004 9.75663L24.9822 9.54872L24.9822 9.54871L24.004 9.75663ZM24.8357 13.6693L23.8575 13.8772L23.8575 13.8772L24.8357 13.6693ZM24.2533 14.7955L23.8576 13.8771L23.8576 13.8772L24.2533 14.7955ZM21.3998 16.025L21.0041 15.1066L20.5561 15.2996L20.4325 15.7715L21.3998 16.025ZM21.112 16.9108L20.1804 16.5473L20.0031 17.0018L20.2521 17.4212L21.112 16.9108ZM22.6979 19.5828L21.838 20.0932L21.838 20.0932L22.6979 19.5828ZM22.5071 20.8363L21.838 20.0932L21.838 20.0932L22.5071 20.8363ZM19.5345 23.5129L18.8654 22.7697L18.8653 22.7698L19.5345 23.5129ZM18.2679 23.5716L17.6704 24.3735L17.6706 24.3736L18.2679 23.5716ZM15.7766 21.7153L16.3741 20.9134L15.9823 20.6215L15.5113 20.7512L15.7766 21.7153ZM14.8646 21.9101L14.7133 20.9216L14.2313 20.9954L13.9926 21.4205L14.8646 21.9101ZM13.3443 24.6181L12.4723 24.1286L12.4723 24.1286L13.3443 24.6181ZM12.1632 25.0797L11.8542 26.0307L12.1632 25.0797ZM8.35901 23.8436L8.66803 22.8925L8.35901 23.8436ZM7.67482 22.776L8.668 22.8926L8.66801 22.8925L7.67482 22.776ZM8.03662 19.6915L9.02981 19.808L9.08661 19.3238L8.74005 18.9808L8.03662 19.6915ZM7.4132 18.9979L8.19469 18.374L7.88979 17.9921L7.40114 17.9979L7.4132 18.9979ZM4.30664 19.0353L4.29459 18.0354L4.29458 18.0354L4.30664 19.0353ZM1.50665 14.5387L2.33831 18.4512L4.2946 18.0354L3.46295 14.1228L1.50665 14.5387ZM2.67155 12.286C1.79587 12.6633 1.30851 13.6062 1.50664 14.5386L3.46296 14.1229L3.46292 14.1228L2.67155 12.286ZM5.52498 11.0566L2.67153 12.286L3.46294 14.1228L6.31639 12.8933L5.52498 11.0566ZM5.10081 11.2188C5.04699 11.3845 4.99775 11.5522 4.95344 11.7211L6.88794 12.2288C6.92251 12.097 6.96094 11.9661 7.00292 11.8369L5.10081 11.2188ZM5.2768 10.7259C5.21338 10.8886 5.15463 11.0532 5.10081 11.2188L7.00292 11.8369C7.04489 11.7077 7.09076 11.5792 7.14025 11.4522L5.2768 10.7259ZM3.76276 8.92757L5.34859 11.5995L7.06847 10.5787L5.48264 7.90678L3.76276 8.92757ZM4.14441 6.42051C3.43598 7.05837 3.27612 8.10769 3.76277 8.92759L5.48263 7.90677L5.48266 7.90681L4.14441 6.42051ZM7.11699 3.74397L4.1444 6.42052L5.48267 7.9068L8.45525 5.23025L7.11699 3.74397ZM9.65019 3.62647C8.88594 3.05706 7.82563 3.10606 7.11708 3.74388L8.45516 5.23034L8.45527 5.23027L9.65019 3.62647ZM12.1415 5.4828L9.65022 3.62649L8.45524 5.23025L10.9465 7.08656L12.1415 5.4828ZM12.3048 5.10142C11.9589 5.15436 11.6162 5.22764 11.2787 5.32053L11.8094 7.24883C12.0725 7.17643 12.339 7.11947 12.6074 7.0784L12.3048 5.10142ZM13.1044 2.89231L11.5841 5.60038L13.328 6.57945L14.8484 3.87137L13.1044 2.89231ZM15.4664 1.96928C14.5598 1.6747 13.5711 2.06095 13.1044 2.89233L14.8484 3.87135L14.8484 3.8714L15.4664 1.96928ZM19.2706 3.20535L15.4664 1.96928L14.8484 3.8714L18.6526 5.10746L19.2706 3.20535ZM20.639 5.34048C20.7501 4.39355 20.1773 3.49993 19.2706 3.20535L18.6526 5.10746L18.6526 5.10743L20.639 5.34048ZM20.2772 8.42495L20.639 5.34045L18.6526 5.10745L18.2908 8.19195L20.2772 8.42495ZM20.6889 8.37827C20.4703 8.10437 20.236 7.84364 19.9874 7.59768L18.5806 9.01922C18.7737 9.21031 18.9558 9.41298 19.1258 9.62591L20.6889 8.37827ZM23.0018 7.96469L19.8953 8.00217L19.9194 10.002L23.0259 9.96454L23.0018 7.96469ZM24.9822 9.54871C24.784 8.61632 23.9551 7.95307 23.0017 7.96469L23.0261 9.96454L23.0259 9.96455L24.9822 9.54871ZM25.8138 13.4613L24.9822 9.54872L23.0259 9.96454L23.8575 13.8772L25.8138 13.4613ZM24.649 15.7139C25.5246 15.3367 26.012 14.3938 25.8138 13.4613L23.8575 13.8772L23.8576 13.8771L24.649 15.7139ZM21.7955 16.9434L24.649 15.7139L23.8576 13.8772L21.0041 15.1066L21.7955 16.9434ZM22.2198 16.7811C22.2737 16.6154 22.3228 16.4476 22.3671 16.2785L20.4325 15.7715C20.3979 15.9036 20.3595 16.0344 20.3177 16.1631L22.2198 16.7811ZM22.0436 17.2743C22.1071 17.1115 22.166 16.9468 22.2198 16.7811L20.3177 16.1631C20.2759 16.2917 20.23 16.4201 20.1804 16.5473L22.0436 17.2743ZM23.5579 19.0724L21.9719 16.4004L20.2521 17.4212L21.838 20.0932L23.5579 19.0724ZM23.1762 21.5795C23.8846 20.9416 24.0445 19.8923 23.5579 19.0724L21.838 20.0932L21.838 20.0932L23.1762 21.5795ZM20.2036 24.256L23.1762 21.5795L21.838 20.0932L18.8654 22.7697L20.2036 24.256ZM17.6706 24.3736C18.4347 24.9427 19.4949 24.8943 20.2037 24.256L18.8653 22.7698L18.8652 22.7696L17.6706 24.3736ZM15.1791 22.5172L17.6704 24.3735L18.8654 22.7697L16.3741 20.9134L15.1791 22.5172ZM15.0159 22.8986C15.3617 22.8456 15.7044 22.7724 16.0419 22.6795L15.5113 20.7512C15.2482 20.8236 14.9816 20.8805 14.7133 20.9216L15.0159 22.8986ZM14.2162 25.1077L15.7366 22.3996L13.9926 21.4205L12.4723 24.1286L14.2162 25.1077ZM11.8542 26.0307C12.7609 26.3253 13.7495 25.939 14.2163 25.1077L12.4723 24.1286L12.4723 24.1286L11.8542 26.0307ZM8.05 24.7946L11.8542 26.0307L12.4723 24.1286L8.66803 22.8925L8.05 24.7946ZM6.68163 22.6595C6.57053 23.6064 7.14337 24.5001 8.05 24.7946L8.66803 22.8925L8.668 22.8926L6.68163 22.6595ZM7.04343 19.575L6.68163 22.6595L8.66801 22.8925L9.02981 19.808L7.04343 19.575ZM6.6317 19.6218C6.85034 19.8956 7.08466 20.1563 7.33319 20.4023L8.74005 18.9808C8.54696 18.7897 8.36476 18.587 8.19469 18.374L6.6317 19.6218ZM4.3187 20.0353L7.42525 19.9978L7.40114 17.9979L4.29459 18.0354L4.3187 20.0353ZM2.33834 18.4514C2.53664 19.3837 3.36541 20.0468 4.3187 20.0353L4.29458 18.0354L4.29458 18.0353L2.33834 18.4514ZM14.5874 11.1468C16.1598 11.6577 17.0244 13.3546 16.5135 14.927L18.4156 15.5451C19.2678 12.9222 17.8283 10.0969 15.2054 9.24471L14.5874 11.1468ZM10.8071 13.0729C11.318 11.5005 13.015 10.6359 14.5874 11.1468L15.2054 9.24471C12.5825 8.39248 9.75727 9.832 8.90503 12.4549L10.8071 13.0729ZM12.7333 16.8532C11.1609 16.3423 10.2962 14.6453 10.8071 13.0729L8.90503 12.4549C8.0528 15.0778 9.49232 17.903 12.1152 18.7553L12.7333 16.8532ZM16.5135 14.927C16.0026 16.4994 14.3057 17.3641 12.7333 16.8532L12.1152 18.7553C14.7381 19.6075 17.5634 18.168 18.4156 15.5451L16.5135 14.927Z" fill="white" mask="url(#path-1-inside-1)"/>
</svg>
