<?xml version="1.0" encoding="UTF-8"?>
<svg width="23px" height="24px" viewBox="0 0 23 24" version="1.1" xmlns="http://www.w3.org/2000/svg" xmlns:xlink="http://www.w3.org/1999/xlink">
    <title>Icon</title>
    <g id="⚡-Active---SKIP" stroke="none" stroke-width="1" fill="none" fill-rule="evenodd">
        <g id="Mobile:-Views" transform="translate(-375.000000, -689.000000)" fill-rule="nonzero" stroke="#474E5D">
            <g id="Mobile:-Menu" transform="translate(0.500000, 675.164383)">
                <g id="Upgrade" transform="translate(27.500000, 8.835617)">
                    <g id="Settings" transform="translate(341.500000, 3.244146)">
                        <g id="Disconnected" transform="translate(0.000000, -0.000000)">
                            <g id="Icon" transform="translate(3.622568, -0.000000)">
                                <path d="M15.53779,3.2558535 C15.6569655,3.2558535 15.7678637,3.29791878 15.8548106,3.36919522 C15.9200086,3.42264265 15.9717408,3.49251786 16.0033899,3.57341177 L16.0280996,3.65777823 L16.6859472,6.94701608 C16.9931836,7.08931107 17.2910674,7.25274243 17.5769439,7.4359287 L17.8587195,7.62564879 L21.0378175,6.55012946 C21.1506512,6.51194064 21.2691306,6.51626371 21.3742928,6.5559071 C21.453198,6.58565225 21.5246119,6.63528209 21.5805258,6.70177841 L21.6309763,6.77378512 L23.6309787,10.2379226 C23.6905653,10.3411283 23.709591,10.4581934 23.691338,10.5691243 C23.6776507,10.6523076 23.6430003,10.7320418 23.5887672,10.7998962 L23.5280576,10.8634785 L20.8394289,13.2263198 L23.4981305,16.6237776 C23.605326,16.7044157 23.671258,16.8197381 23.6914713,16.9425827 C23.7051611,17.0257809 23.6978816,17.1124295 23.6682471,17.1940956 L23.6311096,17.2737886 L21.6310946,20.737948 C21.5715369,20.8411202 21.4796994,20.9160647 21.3745565,20.9557008 C21.2956118,20.9854609 21.2091661,20.9953239 21.123282,20.9823078 L21.0378836,20.9615548 L17.8588624,19.8861101 C17.5811021,20.0821383 17.2906993,20.2591288 16.9899992,20.4153819 L16.6859535,20.5646596 L16.028097,23.8539422 C16.0047327,23.9707804 15.9417413,24.0712485 15.8548106,24.1425118 C15.7896004,24.1959691 15.7109176,24.2329952 15.6253747,24.2481671 L15.53779,24.2558535 L11.53779,24.2558535 C11.4186144,24.2558535 11.3077163,24.2137882 11.2207694,24.1425118 C11.1555713,24.0890643 11.1038392,24.0191891 11.07219,23.9382952 L11.0474803,23.8539288 L10.3896326,20.5646901 C10.0823961,20.4223979 9.78453588,20.2589692 9.49860584,20.0757888 L9.21674709,19.8860758 L6.03769184,20.9615563 C5.92483506,20.9997363 5.8063386,20.9954174 5.70115849,20.9557673 C5.62224782,20.92602 5.55082983,20.8763861 5.49491656,20.809904 L5.44446826,20.7379183 L3.4444854,17.2738813 C3.38488797,17.1706402 3.36585265,17.0535459 3.38410893,16.9425893 C3.39779612,16.8594024 3.43244599,16.7796666 3.48667918,16.7118114 L3.54738906,16.6482285 L6.23600791,14.2853958 L3.57745409,10.8879329 C3.47025588,10.8072946 3.4043223,10.6919706 3.38410865,10.5691243 C3.37041887,10.4859261 3.37769839,10.3992775 3.40733288,10.3176114 L3.44447034,10.2379185 L5.44443764,6.77384175 C5.50404279,6.67063283 5.595948,6.59564518 5.70115134,6.55598629 C5.78005233,6.5262427 5.86644272,6.51636512 5.95230585,6.52938608 L6.03769632,6.55015221 L9.21671761,7.62559685 C9.49447784,7.42956875 9.78488067,7.25257819 10.0855808,7.09632508 L10.3896265,6.94704741 L11.047483,3.65776479 C11.0650062,3.57013618 11.1048197,3.49171568 11.1603051,3.42791803 L11.2207694,3.36919522 L15.53779,3.2558535 Z M13.53779,9.2558535 C12.29714,9.2558535 11.1720166,9.76032011 10.3571366,10.5752001 C9.54225659,11.3900801 9.03778998,12.5152035 9.03778998,13.7558535 C9.03778998,14.9965035 9.54225659,16.1216269 10.3571366,16.9365069 C11.1720166,17.7513869 12.29714,18.2558535 13.53779,18.2558535 C14.77844,18.2558535 15.9035634,17.7513869 16.7184434,16.9365069 C17.5333234,16.1216269 18.03779,14.9965035 18.03779,13.7558535 C18.03779,12.5152035 17.5333234,11.3900801 16.7184434,10.5752001 C15.9035634,9.76032011 14.77844,9.2558535 13.53779,9.2558535 Z" transform="translate(13.537790, 13.755854) rotate(18.000000) translate(-13.537790, -13.755854) "></path>
                            </g>
                        </g>
                    </g>
                </g>
            </g>
        </g>
    </g>
</svg>