<?xml version="1.0" encoding="UTF-8"?>
<svg width="18px" height="26px" viewBox="0 0 18 26" version="1.1" xmlns="http://www.w3.org/2000/svg" xmlns:xlink="http://www.w3.org/1999/xlink">
    <title>Path 2</title>
    <g id="⚡-Active---SKIP" stroke="none" stroke-width="1" fill="none" fill-rule="evenodd">
        <g id="Mobile:-Views" transform="translate(-20.000000, -20.000000)" fill="#28F4AE" fill-rule="nonzero">
            <g id="Breadcrumb-Icon" transform="translate(20.162555, 20.103823)">
                <path d="M16.1204685,0.0597655476 L4.82382021,4.89773529 C4.44813263,5.05862949 4.27400819,5.49361497 4.43490239,5.86930255 C4.47028106,5.95191167 4.52041102,6.02738577 4.58283781,6.09202952 L7.47005637,9.08178137 C8.32176509,9.96373667 9.72717747,9.98825637 10.6091328,9.13654765 C10.676934,9.07107171 10.7404964,9.00134422 10.7994342,8.92778856 L16.9892787,1.20272884 C17.2448323,0.883792401 17.1934504,0.418076197 16.8745139,0.162522583 C16.661385,-0.00825087299 16.3715213,-0.0477518439 16.1204685,0.0597655476 Z M8.58533523,15.5424915 L0.202602231,24.39771 C-0.0783591767,24.6945075 -0.0655214433,25.1628737 0.231276111,25.4438351 C0.442578344,25.6438629 0.751489579,25.7015002 1.02070677,25.5911287 L14.8014535,19.941408 C15.1795991,19.7863789 15.3604708,19.3541554 15.2054416,18.9760099 C15.1676255,18.883769 15.1115612,18.8001201 15.0406144,18.7300846 L11.7571313,15.4887774 C10.8845816,14.6274354 9.47898469,14.6365211 8.61764276,15.5090708 C8.60675725,15.520098 8.59598748,15.5312388 8.58533523,15.5424915 Z" id="Path-2"></path>
            </g>
        </g>
    </g>
</svg>