<?xml version="1.0" encoding="UTF-8"?>
<svg width="22px" height="23px" viewBox="0 0 22 23" version="1.1" xmlns="http://www.w3.org/2000/svg" xmlns:xlink="http://www.w3.org/1999/xlink">
    <title>Icon</title>
    <g id="⚡-Active---SKIP" stroke="none" stroke-width="1" fill="none" fill-rule="evenodd">
        <g id="Mobile:-Views" transform="translate(-30.000000, -689.000000)" fill="#F3BA2F" fill-rule="nonzero">
            <g id="Mobile:-Menu" transform="translate(0.500000, 675.164383)">
                <g id="Upgrade" transform="translate(27.500000, 8.835617)">
                    <g id="Selected" transform="translate(0.000000, 5.000000)">
                        <path d="M21.6302187,13.3870451 C22.2519168,13.3870451 22.8319796,13.6994048 23.1751646,14.217581 C23.5182551,14.7355684 23.5793392,15.3910658 23.3368439,15.9635757 C21.5918877,20.0939741 17.5005756,23 12.7417286,23 C9.60326219,23 6.7568098,21.7359276 4.67957317,19.6909796 L4.67957317,19.6909796 L3.90044422,20.8619153 C3.70425761,21.1569033 3.33780029,21.2880406 2.99862783,21.1847546 C2.65997462,21.0814687 2.42904467,20.7681177 2.43101464,20.4137923 L2.43101464,20.4137923 L2.46038921,14.1853396 C2.46185259,13.9139544 2.60040112,13.6616875 2.82835711,13.5146892 C3.05678517,13.3678796 3.34379541,13.3465899 3.59162497,13.4578064 L3.59162497,13.4578064 L9.24431056,16.0008682 C9.56809399,16.1463559 9.75771902,16.4877943 9.71008853,16.8396178 C9.66241085,17.1917246 9.38927906,17.4703323 9.03821078,17.5247604 L9.03821078,17.5247604 L8.01026094,17.6837962 C9.3217278,18.6981036 10.9574974,19.3096525 12.7417758,19.3096525 C15.9789964,19.3096525 18.7558677,17.3267328 19.9368582,14.5130883 C20.2228772,13.8310141 20.8907896,13.3870451 21.6302187,13.3870451 Z M12.7417758,0 C15.8802423,0 18.7266474,1.26407241 20.8039313,3.30892597 L20.8039313,3.30892597 L21.5830602,2.13799027 C21.779294,1.84304948 22.1457042,1.71195944 22.4848766,1.81524537 C22.8234826,1.91853129 23.0544598,2.23188227 23.0524898,2.58620775 L23.0524898,2.58620775 L23.0231624,8.81466043 C23.0216519,9.08609281 22.8831505,9.33835971 22.6551473,9.48535804 C22.4267665,9.63212035 22.139709,9.65350451 21.8919267,9.54224083 L21.8919267,9.54224083 L16.2392411,6.99917903 C15.9154577,6.85369128 15.7257854,6.51230015 15.7734631,6.16042937 C15.8210464,5.80836976 16.0941782,5.52980933 16.4452937,5.47538124 L16.4452937,5.47538124 L17.4731963,5.31625105 C16.1617766,4.30194364 14.5260071,3.69039468 12.7417758,3.69039468 C9.50450801,3.69039468 6.72763671,5.67331445 5.54669342,8.48695893 C5.2606745,9.16903311 4.59276201,9.61300207 3.853333,9.61300207 C3.23158762,9.61300207 2.65157202,9.3005952 2.30843428,8.78246619 C1.96529655,8.26452599 1.90421246,7.60898138 2.14656617,7.03647148 C3.89156956,2.90607311 7.98302329,0 12.7417758,0 Z" id="Icon"></path>
                    </g>
                </g>
            </g>
        </g>
    </g>
</svg>