<?xml version="1.0" encoding="UTF-8"?>
<svg width="19px" height="24px" viewBox="0 0 19 24" version="1.1" xmlns="http://www.w3.org/2000/svg" xmlns:xlink="http://www.w3.org/1999/xlink">
    <title>Icon</title>
    <g id="⚡-Active---SKIP" stroke="none" stroke-width="1" fill="none" fill-rule="evenodd">
        <g id="Mobile:-Views" transform="translate(-318.000000, -689.000000)" fill-rule="nonzero">
            <g id="Mobile:-Menu" transform="translate(0.500000, 675.164383)">
                <g id="Upgrade" transform="translate(27.500000, 8.835617)">
                    <g id="Icon" transform="translate(290.000000, 5.000000)">
                        <path d="M17.671138,0.616599221 C17.3063069,0.448507999 16.8764064,0.513917779 16.5780062,0.78281835 L15.0034628,2.17696002 C14.9606316,2.21508264 14.8960161,2.21485572 14.8534118,2.17650618 L12.7110571,0.260391059 C12.3235907,-0.0867970198 11.7370017,-0.0867970198 11.3495352,0.260391059 L9.20910937,2.17474755 C9.16605124,2.21321054 9.10098184,2.21321054 9.05792371,2.17474755 L6.91727094,0.260391059 C6.5298045,-0.0867402897 5.94321549,-0.0867402897 5.55574906,0.260391059 L3.41311073,2.17650618 C3.37022279,2.21485572 3.30543704,2.21502591 3.26232218,2.17690329 L1.68636061,0.78281835 C1.26825993,0.411009417 0.627890809,0.448507999 0.256081876,0.866608676 C0.0893521757,1.05410158 -0.00186979014,1.29679286 2.90586024e-05,1.54765327 L2.90586024e-05,22.4523467 C-0.00368515265,23.0127264 0.44754589,23.4700276 1.0079256,23.4737718 C1.2589562,23.4754737 1.50164747,23.3840248 1.68919711,23.2171816 L3.26374044,21.82304 C3.30657165,21.7849174 3.3711872,21.7851443 3.41379149,21.8234938 L5.55614617,23.7396089 C5.9436126,24.086797 6.53020161,24.086797 6.91766805,23.7396089 L9.05832082,21.8252524 C9.10137895,21.7867895 9.16644835,21.7867895 9.20950648,21.8252524 L11.3501593,23.7395522 C11.7376824,24.0865701 12.3242147,24.0865701 12.7116811,23.7395522 L14.8544329,21.8234371 C14.8973209,21.7850876 14.9621066,21.7849174 15.0052215,21.82304 L16.581183,23.2171249 C16.9994539,23.5887637 17.6397663,23.5509814 18.011405,23.1327106 C18.1778511,22.9453878 18.2689596,22.7029802 18.2672334,22.4523467 L18.2672334,1.54765327 C18.2724769,1.14606104 18.0380682,0.779868386 17.671138,0.616599221 Z" id="Shape" fill="#28F4AF"></path>
                        <path d="M3.75598733,8.14235468 L9.4055089,8.14235468 C9.65614239,8.14235468 9.85934953,8.41100468 9.85934953,8.74235468 C9.85934953,9.07370468 9.65614239,9.34235468 9.4055089,9.34235468 L3.75598733,9.34235468 C3.50535384,9.34235468 3.3021467,9.07370468 3.3021467,8.74235468 C3.3021467,8.41100468 3.50535384,8.14235468 3.75598733,8.14235468 Z" id="Path" fill="#000B12"></path>
                        <path d="M14.5112159,16.1499641 L3.75598733,16.1499641 C3.50535384,16.1499641 3.3021467,15.8813141 3.3021467,15.5499641 C3.3021467,15.2186141 3.50535384,14.9499641 3.75598733,14.9499641 L14.5112159,14.9499641 C14.7618494,14.9499641 14.9650566,15.2186141 14.9650566,15.5499641 C14.9650566,15.8813141 14.7618494,16.1499641 14.5112159,16.1499641 Z" id="Path" fill="#000B12"></path>
                        <path d="M14.5112159,12.7461594 L3.75598733,12.7461594 C3.50535384,12.7461594 3.3021467,12.4775094 3.3021467,12.1461594 C3.3021467,11.8148094 3.50535384,11.5461594 3.75598733,11.5461594 L14.5112159,11.5461594 C14.7618494,11.5461594 14.9650566,11.8148094 14.9650566,12.1461594 C14.9650566,12.4775094 14.7618494,12.7461594 14.5112159,12.7461594 Z" id="Path" fill="#000B12"></path>
                    </g>
                </g>
            </g>
        </g>
    </g>
</svg>