<svg width="20" height="26" viewBox="0 0 20 26" fill="none" xmlns="http://www.w3.org/2000/svg">
    <path d="M18.6711 1.6166C18.3063 1.44851 17.8764 1.51392 17.578 1.78282L16.0034 3.17696C15.9606 3.21508 15.896 3.21486 15.8534 3.17651L13.711 1.26039C13.3236 0.913203 12.737 0.913203 12.3495 1.26039L10.2091 3.17475C10.166 3.21321 10.101 3.21321 10.0579 3.17475L7.91724 1.26039C7.52978 0.91326 6.94319 0.91326 6.55572 1.26039L4.41308 3.17651C4.37019 3.21486 4.30541 3.21503 4.26229 3.1769L2.68633 1.78282C2.26823 1.41101 1.62786 1.44851 1.25605 1.86661C1.08932 2.0541 0.998101 2.29679 1.00003 2.54765V23.4523C0.996286 24.0127 1.44752 24.47 2.0079 24.4738C2.25893 24.4755 2.50162 24.384 2.68917 24.2172L4.26371 22.823C4.30654 22.7849 4.37116 22.7851 4.41376 22.8235L6.55612 24.7396C6.94358 25.0868 7.53017 25.0868 7.91764 24.7396L10.0583 22.8253C10.1013 22.7868 10.1664 22.7868 10.2095 22.8253L12.3501 24.7396C12.7377 25.0866 13.3242 25.0866 13.7117 24.7396L15.8544 22.8234C15.8973 22.7851 15.9621 22.7849 16.0052 22.823L17.5812 24.2171C17.9994 24.5888 18.6397 24.551 19.0114 24.1327C19.1778 23.9454 19.2689 23.703 19.2671 23.4523V2.54765C19.2724 2.14606 19.038 1.77987 18.6711 1.6166Z" fill="#000B12" stroke="white"/>
    <path d="M4.75596 9.14233H10.4055C10.6561 9.14233 10.8593 9.41098 10.8593 9.74233C10.8593 10.0737 10.6561 10.3423 10.4055 10.3423H4.75596C4.50533 10.3423 4.30212 10.0737 4.30212 9.74233C4.30212 9.41098 4.50533 9.14233 4.75596 9.14233Z" fill="white"/>
    <path d="M15.5112 17.15H4.75596C4.50533 17.15 4.30212 16.8813 4.30212 16.55C4.30212 16.2186 4.50533 15.95 4.75596 15.95H15.5112C15.7618 15.95 15.965 16.2186 15.965 16.55C15.965 16.8813 15.7618 17.15 15.5112 17.15Z" fill="white"/>
    <path d="M15.5112 13.7461H4.75596C4.50533 13.7461 4.30212 13.4775 4.30212 13.1461C4.30212 12.8148 4.50533 12.5461 4.75596 12.5461H15.5112C15.7618 12.5461 15.965 12.8148 15.965 13.1461C15.965 13.4775 15.7618 13.7461 15.5112 13.7461Z" fill="white"/>
</svg>
