<svg width="23" height="28" viewBox="0 0 23 28" fill="none" xmlns="http://www.w3.org/2000/svg">
    <path fill-rule="evenodd" clip-rule="evenodd" d="M12 0.535714V2.46429C12 2.76016 11.7761 3 11.5 3C11.2239 3 11 2.76016 11 2.46429V0.535714C11 0.239839 11.2239 0 11.5 0C11.7761 0 12 0.239839 12 0.535714ZM3.44721 12.8166C3.70314 12.2746 4.15845 11.8737 4.71137 11.6831V9.17617C4.71137 7.97623 5.6975 7 6.90962 7C7.56569 7 8.1552 7.28638 8.55831 7.73908C8.96141 7.28638 9.55093 7 10.207 7C11.0832 7 11.841 7.5102 12.1939 8.24618C12.5601 7.97612 13.0137 7.81606 13.5044 7.81606C14.3805 7.81606 15.1384 8.32626 15.4913 9.06224C15.8575 8.79218 16.3111 8.63212 16.8018 8.63212C18.0139 8.63212 19 9.60835 19 10.8083V14.0725C19 16.0574 18.5711 17.6103 18.1563 19.1119L18.1563 19.112L18.1562 19.1124C17.7423 20.6109 17.3513 22.0263 17.3513 23.8653V27.456C17.3513 27.7564 17.1052 28 16.8018 28H14.9418H14.8152H6.90962C6.60615 28 6.36006 27.7564 6.36006 27.456V22.4558L3.20304 19.4967C1.999 18.3678 1.66074 16.6096 2.36116 15.1218L3.44721 12.8166ZM14.8152 26.9119H14.9418H16.2522V23.8653C16.2522 21.8804 16.6811 20.3276 17.0958 18.8259L17.0959 18.8258L17.096 18.8254C17.3505 17.9038 17.5961 17.0132 17.7477 16.0366C17.461 16.1724 17.1402 16.2487 16.8018 16.2487C15.9256 16.2487 15.1677 15.7385 14.8148 15.0025C14.4486 15.2726 13.995 15.4326 13.5044 15.4326C13.1867 15.4326 12.885 15.3651 12.6114 15.2459C12.2041 16.1107 11.5081 16.7531 10.6896 17.1136C11.8012 18.4876 12.4052 20.1815 12.4052 21.9677C12.4052 22.2681 12.1592 22.5117 11.8557 22.5117C11.5522 22.5117 11.3061 22.2681 11.3061 21.9677C11.3061 20.2678 10.6702 18.665 9.51059 17.4248C8.79978 17.497 8.11157 17.3711 7.49902 17.0884L6.00471 16.3985C5.72965 16.2715 5.61062 15.9478 5.73894 15.6755C5.86715 15.4033 6.19414 15.2853 6.46925 15.4124L7.96351 16.1022C9.16623 16.6572 10.5722 16.2732 11.333 15.256L5.90414 12.7501C5.36518 12.501 4.70664 12.719 4.44313 13.2769L3.35741 15.5815C2.85709 16.6443 3.09879 17.9003 3.95885 18.7067L7.28744 21.8267C7.39708 21.9294 7.45918 22.0723 7.45918 22.2217V26.9119H14.8152ZM16.8017 9.72021C16.1957 9.72021 15.7026 10.2083 15.7026 10.8083V14.0725C15.7026 14.6725 16.1957 15.1606 16.8017 15.1606C17.4078 15.1606 17.9009 14.6725 17.9009 14.0725V10.8083C17.9009 10.2083 17.4078 9.72021 16.8017 9.72021ZM12.4052 9.99223C12.4052 9.39226 12.8983 8.90415 13.5044 8.90415C14.1104 8.90415 14.6035 9.39226 14.6035 9.99223V13.2565C14.6035 13.8564 14.1104 14.3446 13.5044 14.3446C12.8983 14.3446 12.4052 13.8564 12.4052 13.2565V9.99223ZM10.207 8.08808C9.60094 8.08808 9.10787 8.5762 9.10787 9.17617V13.0284L11.4908 14.1282C11.3723 13.8611 11.3061 13.5664 11.3061 13.2565V9.17617C11.3061 8.5762 10.8131 8.08808 10.207 8.08808ZM5.81049 9.17617C5.81049 8.5762 6.30356 8.08808 6.90962 8.08808C7.51568 8.08808 8.00874 8.5762 8.00874 9.17617V12.521L6.3689 11.7642C6.19041 11.6816 6.00251 11.624 5.81049 11.5913V9.17617ZM6.71416 4.91253C6.98744 4.73244 7.08115 4.3336 6.92339 4.02156L6.06634 2.32637C5.90858 2.01433 5.55913 1.90737 5.28584 2.08745C5.01256 2.26754 4.91885 2.66639 5.07661 2.97842L5.93366 4.67361C6.0909 4.98467 6.44013 5.09314 6.71416 4.91253ZM0.978449 6.07663L2.67369 6.93368C2.98566 7.09144 3.09263 7.44083 2.91254 7.71417C2.73174 7.98871 2.33222 8.08047 2.02155 7.92346L0.326315 7.06641C0.0143368 6.90866 -0.0926346 6.55921 0.0874557 6.28592C0.267415 6.01258 0.666145 5.91882 0.978449 6.07663ZM17.0663 4.67374L17.9234 2.97848C18.0811 2.66649 17.9874 2.26756 17.7142 2.08747C17.4406 1.90731 17.0914 2.01441 16.9337 2.3264L16.0766 4.02166C15.9189 4.33364 16.0126 4.73257 16.2858 4.91267C16.558 5.09185 16.9079 4.98709 17.0663 4.67374ZM22.6737 7.06636L20.9784 7.92338C20.6656 8.08158 20.267 7.98657 20.0875 7.7141C19.9074 7.44076 20.0143 7.09138 20.3263 6.93364L22.0216 6.07662C22.3336 5.91881 22.7324 6.01263 22.9125 6.2859C23.0926 6.55923 22.9857 6.90861 22.6737 7.06636Z" fill="url(#paint0_linear)"/>
    <defs>
    <linearGradient id="paint0_linear" x1="0" y1="30.1722" x2="23" y2="30.1722" gradientUnits="userSpaceOnUse">
    <stop stop-color="#FFFB00"/>
    <stop offset="0.451041" stop-color="#F625F0"/>
    <stop offset="1" stop-color="#01F6EE"/>
    </linearGradient>
    </defs>
</svg>
