<?xml version="1.0" encoding="UTF-8"?>
<svg width="23px" height="28px" viewBox="0 0 23 28" version="1.1" xmlns="http://www.w3.org/2000/svg" xmlns:xlink="http://www.w3.org/1999/xlink">
    <title>Shape</title>
    <g id="⚡-Active---SKIP" stroke="none" stroke-width="1" fill="none" fill-rule="evenodd">
        <g id="Mobile:-Views" transform="translate(-252.000000, -684.000000)" fill="#474E5D" fill-rule="nonzero">
            <g id="Mobile:-Menu" transform="translate(0.500000, 675.164383)">
                <g id="Upgrade" transform="translate(27.500000, 8.835617)">
                    <g transform="translate(218.000000, -0.000000)" id="Disconnected">
                        <g id="Icon" transform="translate(6.000000, 0.000000)">
                            <path d="M4.71136716,11.6830544 C4.15845202,11.8736865 3.70313924,12.2745907 3.44720785,12.8165648 L2.36116184,15.1217772 C1.66074405,16.6096218 1.99899995,18.3678005 3.20303709,19.4967409 L6.36005556,22.4558368 L6.36005556,27.4559585 C6.36005556,27.7564326 6.60614979,28 6.90961836,28 L14.9417535,28 C15.2452221,28 15.4913163,27.7564326 15.4913163,27.4559585 C15.4913163,27.1554845 15.2452221,26.9119171 14.9417535,26.9119171 L7.45918117,26.9119171 L7.45918117,22.2217358 C7.45918117,22.0722876 7.39708057,21.9294223 7.28744279,21.8267073 L3.95885081,18.7066839 C3.09878503,17.9002513 2.85708731,16.6442772 3.35740928,15.5815466 L4.44312555,13.2769326 C4.70664092,12.7189637 5.36518202,12.5010207 5.90413826,12.7501373 L11.3330494,15.2559922 C10.5721797,16.2731865 9.16623314,16.6572254 7.96351495,16.1022487 L6.46925369,15.4124041 C6.19414255,15.2853161 5.86715269,15.4032642 5.73893968,15.6755026 C5.61061677,15.9477953 5.72965207,16.2715 6.00470826,16.3985337 L7.49902447,17.0884326 C8.11156717,17.3711166 8.79978466,17.4969534 9.51058919,17.4247591 C10.6702217,18.6650104 11.3061208,20.2677565 11.3061208,21.9676684 C11.3061208,22.2681425 11.552215,22.5117098 11.8556836,22.5117098 C12.1591522,22.5117098 12.4052464,22.2681425 12.4052464,21.9676684 C12.4052464,20.1814715 11.8012219,18.4875984 10.6896212,17.1135674 C11.5080851,16.7531399 12.2040514,16.1106813 12.6114423,15.2458731 C12.8849598,15.3650725 13.1867247,15.4326425 13.504372,15.4326425 C13.9950217,15.4326425 14.4486308,15.2725855 14.8148045,15.0025233 C15.1677337,15.7385026 15.9255808,16.2487047 16.8017488,16.2487047 C17.1402245,16.2487047 17.4610043,16.1724301 17.7476563,16.0365829 C17.5960869,17.0132461 17.3505422,17.9037876 17.0959847,18.8253938 C16.6811747,20.3272202 16.252186,21.8801865 16.252186,23.865285 L16.252186,26.9119171 L14.8151817,26.9119171 C14.5117131,26.9119171 14.2656189,27.1554845 14.2656189,27.4559585 C14.2656189,27.7564326 14.5117131,28 14.8151817,28 L16.8017488,28 C17.1052174,28 17.3513116,27.7564326 17.3513116,27.4559585 L17.3513116,23.865285 C17.3513116,22.0263161 17.7422706,20.6108834 18.1562013,19.1124301 C18.5710113,17.6106036 19,16.0576373 19,14.0725389 L19,10.8082902 C19,9.60835233 18.0138645,8.63212435 16.8017488,8.63212435 C16.3110991,8.63212435 15.85749,8.79218135 15.4913163,9.06224352 C15.1383871,8.32626425 14.38054,7.81606218 13.504372,7.81606218 C13.0137223,7.81606218 12.5601132,7.97611917 12.1939395,8.24618135 C11.8410103,7.51020207 11.0831631,7 10.2069952,7 C9.5509271,7 8.96141108,7.28638342 8.55830677,7.73908031 C8.15520245,7.28638342 7.56568644,7 6.90961836,7 C5.69750265,7 4.71136716,7.97622798 4.71136716,9.1761658 L4.71136716,11.6830544 Z M15.7026232,10.8082902 C15.7026232,10.2083212 16.1956909,9.72020725 16.8017488,9.72020725 C17.4078067,9.72020725 17.9008744,10.2083212 17.9008744,10.8082902 L17.9008744,14.0725389 C17.9008744,14.6725078 17.4078067,15.1606218 16.8017488,15.1606218 C16.1956909,15.1606218 15.7026232,14.6725078 15.7026232,14.0725389 L15.7026232,10.8082902 Z M12.4052464,9.99222798 C12.4052464,9.39225907 12.8983141,8.90414508 13.504372,8.90414508 C14.1104298,8.90414508 14.6034976,9.39225907 14.6034976,9.99222798 L14.6034976,13.2564767 C14.6034976,13.8564456 14.1104298,14.3445596 13.504372,14.3445596 C12.8983141,14.3445596 12.4052464,13.8564456 12.4052464,13.2564767 L12.4052464,9.99222798 Z M9.10786957,9.1761658 C9.10786957,8.57619689 9.60093732,8.0880829 10.2069952,8.0880829 C10.813053,8.0880829 11.3061208,8.57619689 11.3061208,9.1761658 L11.3061208,13.2564767 C11.3061208,13.5663627 11.3723431,13.8611244 11.4908288,14.1282487 L9.10786957,13.0283601 L9.10786957,9.1761658 Z M6.90961836,8.0880829 C7.51567622,8.0880829 8.00874397,8.57619689 8.00874397,9.1761658 L8.00874397,12.5210415 L6.36890352,11.764171 C6.19040553,11.6816399 6.00251,11.6239715 5.81049276,11.591329 L5.81049276,9.1761658 C5.81049276,8.57619689 6.30356051,8.0880829 6.90961836,8.0880829 Z M0.0874556706,6.28592389 C0.267415488,6.01258202 0.666144869,5.91882073 0.978449185,6.07663224 L0.978449185,6.07663224 L2.67368501,6.93368242 C2.9856632,7.09143679 3.0926346,7.44082758 2.91254433,7.71416945 C2.73173657,7.9887112 2.33222447,8.0804727 2.02155082,7.92346111 L2.02155082,7.92346111 L0.326314986,7.06641092 C0.0143368032,6.90865655 -0.0926345997,6.55920863 0.0874556706,6.28592389 Z M22.0215508,6.07661702 C22.3335942,5.91881119 22.7323888,6.01262624 22.9125443,6.28590114 C23.0926346,6.55923317 22.9856632,6.90861138 22.673685,7.06636007 L22.673685,7.06636007 L20.9784492,7.9233794 C20.6656231,8.08158516 20.2669589,7.98657029 20.0874557,7.71409528 C19.9073654,7.44076325 20.0143368,7.09138504 20.326315,6.93363634 L20.326315,6.93363634 Z M5.2858449,2.08745103 C5.55913107,1.90736553 5.90858083,2.0143341 6.06633603,2.32636925 L6.06633603,2.32636925 L6.92339072,4.02156019 C7.08114591,4.33359534 6.98744127,4.73244461 6.7141551,4.91253011 C6.44012615,5.09313741 6.09090493,4.98466867 5.93366397,4.6736119 L5.93366397,4.6736119 L5.07660928,2.97842095 C4.91885409,2.66638581 5.01255873,2.26753653 5.2858449,2.08745103 Z M16.933664,2.3263976 C17.0914192,2.01441469 17.4406404,1.90731121 17.7141551,2.08746944 C17.9874413,2.26756244 18.0811459,2.66649355 17.9233907,2.97847646 L17.9233907,2.97847646 L17.066336,4.673738 C16.9078952,4.98709069 16.5580455,5.09184599 16.2858449,4.91266617 C16.0125587,4.73257317 15.9188541,4.33364206 16.0766093,4.02165914 L16.0766093,4.02165914 Z M11.5,0 C11.7761,0 12,0.239839286 12,0.535714286 L12,0.535714286 L12,2.46428571 C12,2.76016071 11.7761,3 11.5,3 C11.2239,3 11,2.76016071 11,2.46428571 L11,2.46428571 L11,0.535714286 C11,0.239839286 11.2239,0 11.5,0 Z" id="Shape"></path>
                        </g>
                    </g>
                </g>
            </g>
        </g>
    </g>
</svg>